<svg width="41" height="40" viewBox="0 0 41 40" fill="none" xmlns="http://www.w3.org/2000/svg">
<g clip-path="url(#clip0_26_173)">
<path d="M29.7287 2.25C26.9287 0.8 23.7787 0 20.4287 0C17.0787 0 13.9287 0.8 11.1287 2.25C4.77871 5.6 0.428711 12.3 0.428711 20C0.428711 27.7 4.77871 34.4 11.1787 37.75C13.9287 39.15 17.0787 40 20.4287 40C23.7787 40 26.8787 39.15 29.6787 37.7C36.0787 34.4 40.4287 27.7 40.4287 20C40.4287 12.3 36.0787 5.6 29.7287 2.25ZM2.42871 20C2.42871 13.45 5.92871 7.75 11.1787 4.55C13.7287 3 16.6787 2.1 19.9287 2L17.6787 18.35L11.1787 23.4L4.57871 28.55C3.22871 26 2.42871 23.1 2.42871 20ZM29.7287 35.4C26.9787 37.05 23.8287 38 20.4287 38C17.0287 38 13.8287 37.05 11.1287 35.4C8.67871 33.95 6.67871 31.95 5.17871 29.55L11.1287 27.1L20.4287 23.3L29.7287 27.05L35.7287 29.5C34.2287 31.95 32.1287 33.95 29.7287 35.4ZM29.7287 23.4L23.2787 18.4L20.9787 2C24.1287 2.1 27.1287 3 29.6787 4.55C34.9287 7.7 38.4287 13.45 38.4287 20C38.4287 23.1 37.6787 26 36.2787 28.55L29.7287 23.4Z" fill="#424F4F"/>
</g>
<defs>
<clipPath id="clip0_26_173">
<rect width="40" height="40" fill="white" transform="translate(0.428711)"/>
</clipPath>
</defs>
</svg>
