<svg width="89" height="24" viewBox="0 0 89 24" fill="none" xmlns="http://www.w3.org/2000/svg">
<path d="M0.261719 18.3392H87.8869V24H0.261719V18.3392Z" fill="#424F4F"/>
<path d="M0.274414 14.8756V0.0646362H18.549C24.4812 0.0646362 28.7074 2.76577 28.7074 7.36673C28.7074 11.748 25.36 14.8756 18.381 14.8756H0.274414ZM14.9562 11.0889C17.2308 11.0889 18.562 9.15026 18.562 7.66399C18.562 6.15187 17.373 4.38128 15.0208 4.38128H10.045V11.0889H14.9562Z" fill="#424F4F"/>
<path d="M44.7204 3.73506L38.0128 14.9015H28.6816L37.5217 0H51.8933L60.7721 14.9015H41.1275L43.4668 11.0242H49.0887L44.7204 3.73506Z" fill="#424F4F"/>
<path d="M72.2231 14.8627H62.543V0H88.1585V4.32956H72.2231V6.979H87.8871V11.1793H72.2231V14.8627Z" fill="#424F4F"/>
</svg>
