<svg width="91" height="20" viewBox="0 0 91 20" fill="none" xmlns="http://www.w3.org/2000/svg">
<path fill-rule="evenodd" clip-rule="evenodd" d="M80.3688 4.77363C81.8503 4.85585 82.9197 5.92579 83.0847 7.32515C83.1669 8.06567 83.1669 9.21783 83.1669 9.95835C83.1669 10.8639 83.1669 11.6044 83.0847 12.3449C82.8375 14.0737 81.6031 15.0614 80.3688 15.0614H79.381H78.2283C77.0762 15.0614 75.759 14.0737 75.5124 12.3449C75.4301 11.6044 75.4301 10.8633 75.4301 10.0406C75.4301 9.21783 75.4301 8.06567 75.5124 7.32461C75.6768 5.92525 76.829 4.85531 78.3106 4.77309C78.6394 4.69087 78.8866 4.69087 79.2983 4.69087L80.3688 4.77363ZM79.5449 0C81.1087 0 82.5903 0.0822205 83.8252 0.246661C87.2817 0.658301 90.0804 3.37426 90.656 6.74907C90.7382 7.32515 90.9032 8.64175 90.9032 9.95889C90.9032 11.3583 90.7382 12.6749 90.656 13.1687C90.0804 16.6257 87.2817 19.2595 83.8252 19.7533C82.5903 19.8356 81.1087 20 79.5449 20H79.0511C77.405 20 76.0062 19.8356 74.6891 19.7533C71.2326 19.2595 68.5166 16.6257 67.94 13.1687C67.8578 12.6749 67.6934 11.3583 67.6934 9.95889C67.6934 8.64229 67.8578 7.32569 67.94 6.74907C68.5161 3.37426 71.2326 0.658839 74.6891 0.246661C76.0062 0.0822205 77.4056 0 78.9688 0H79.5449Z" fill="#424F4F"/>
<path fill-rule="evenodd" clip-rule="evenodd" d="M49.834 9.95835C49.834 8.88841 49.9162 7.81901 50.1629 6.74853C50.7389 3.37373 53.4549 0.658301 56.9119 0.246124C58.1469 0.0822205 59.6284 0 61.1917 0C62.9205 0 64.4843 0.0822205 65.8009 0.246661C66.2947 0.328882 66.6236 0.740522 66.6236 1.23438V4.19701C66.6236 4.77309 66.212 5.18473 65.7181 5.18473C65.7181 5.18473 64.1543 5.10197 63.3316 5.10197C62.3439 5.10197 61.5211 5.10197 60.6151 5.18473C59.134 5.26695 58.0641 6.33689 57.8991 7.73625C57.8169 8.47677 57.7341 9.21783 57.7341 9.95835V10.0406C57.7341 10.7816 57.8164 11.5222 57.8991 12.2627C58.0641 13.662 59.0518 14.732 60.6151 14.8964C61.4384 14.9786 62.4261 15.0614 63.3316 15.0614C64.1543 15.0614 65.7181 14.9792 65.7181 14.9792C66.212 14.9792 66.6236 15.3908 66.6236 15.9669V18.9301C66.6236 19.4239 66.2947 19.8356 65.8009 19.9178C64.4843 19.9178 62.9205 19.9995 61.1917 19.9995C59.6284 19.9995 58.1469 19.835 56.9119 19.7528C53.4549 19.2589 50.7395 16.6252 50.1629 13.1682C49.9162 12.181 49.834 11.1111 49.834 10.0411C49.834 6.66631 49.834 13.3337 49.834 9.95835Z" fill="#424F4F"/>
<path fill-rule="evenodd" clip-rule="evenodd" d="M47.6126 14.8142C48.1882 14.8142 48.5998 15.3081 48.5998 15.8019V18.7651C48.5998 19.3412 48.1882 19.7528 47.6126 19.7528H35.8427C33.7029 19.7528 31.9746 18.0246 31.9746 15.8847V4.19756C31.9746 2.05822 33.7029 0.329437 35.8427 0.329437H47.6121C48.1876 0.329437 48.5993 0.741077 48.5993 1.23494V4.11534C48.5993 4.69196 48.1876 5.10306 47.6121 5.10306H40.3697C39.7936 5.10306 39.382 5.43248 39.382 6.00856V7.81956L45.555 7.73734C46.0483 7.73734 46.5421 8.2312 46.5421 8.72506V11.1944C46.5421 11.7704 46.0483 12.1821 45.555 12.1821H39.382V13.8281C39.382 14.4042 39.7936 14.8158 40.3697 14.8158H47.6126V14.8142Z" fill="#424F4F"/>
<path fill-rule="evenodd" clip-rule="evenodd" d="M17.6542 19.7528C15.926 19.7528 14.4444 18.6001 13.9505 17.0363L9.91797 1.48157C9.91797 1.39935 9.91797 1.31713 9.91797 1.23491C9.91797 0.741047 10.3296 0.329407 10.9057 0.329407H16.9137C17.4076 0.329407 17.8192 0.658826 17.9009 1.06993L21.0285 14.0742C21.0285 14.2392 21.1935 14.4031 21.4401 14.4031C21.6046 14.4031 21.769 14.2386 21.769 14.0742L24.9788 1.06993C25.061 0.658289 25.4727 0.329407 25.8843 0.329407H29.2586C29.8347 0.329407 30.2463 0.741047 30.2463 1.23491C30.2463 1.31713 30.2463 1.39935 30.2463 1.48157L26.3782 16.7079C25.9665 18.4362 24.5672 19.7528 22.5923 19.7528H17.6542Z" fill="#424F4F"/>
<path fill-rule="evenodd" clip-rule="evenodd" d="M1.11077 0.328888H6.95433C7.53042 0.328888 7.94205 0.740528 7.94205 1.23439V18.7651C7.94205 19.3412 7.53042 19.7528 6.95433 19.7528H1.11077C0.616907 19.7528 0.123047 19.3412 0.123047 18.7651V1.23439C0.123047 0.740528 0.616907 0.328888 1.11077 0.328888Z" fill="#424F4F"/>
</svg>
