<svg width="73" height="40" viewBox="0 0 73 40" fill="none" xmlns="http://www.w3.org/2000/svg">
<path d="M52.9798 28.9906H47.3424V39.9995H53.0277V35.0326L59.7387 39.9995H65.4208V28.9906H59.7344V34.0018L52.9798 28.9906ZM36.1405 0C16.1752 0 -0.00878906 16.1846 -0.00878906 36.149C-0.00878906 37.4504 0.0601309 38.734 0.193863 40H3.97959C3.82839 38.7219 3.7528 37.436 3.7532 36.149C3.7532 18.2624 18.2538 3.76199 36.1407 3.76199C54.0277 3.76199 68.5284 18.2624 68.5284 36.149C68.5284 37.4524 68.4515 38.7372 68.3022 40H72.0876C72.2228 38.7208 72.2905 37.4353 72.2903 36.149C72.2895 16.1846 56.1052 0 36.1405 0ZM39.1744 28.9906H33.1293L25.9649 39.9995H31.8328L32.6291 38.7678H39.6749L40.4718 39.9995H46.3394L39.1744 28.9906ZM37.8007 35.8417H34.5035L36.1521 33.2945L37.8007 35.8417ZM12.0905 28.9906H6.75723V39.9995H12.4438V35.6462L15.8407 39.0426L19.2367 35.6462V39.9995H24.9232V28.9906H19.5897L15.8405 32.7403L12.0905 28.9906Z" fill="#424F4F"/>
</svg>
