<svg width="124" height="20" viewBox="0 0 124 20" fill="none" xmlns="http://www.w3.org/2000/svg">
<path fill-rule="evenodd" clip-rule="evenodd" d="M116.316 0.686227H105.404L99.6854 14.8097L99.7037 0.668972H92.3623V19.6437H105.206L106.36 16.7567H115.521L116.84 19.6437H124L116.316 0.686227ZM83.7581 10.8771L76.0015 0.667957H66.6949V14.7548L60.8518 0.685213H50.0844L45.5742 11.9592H38.8469C38.2876 14.3204 37.0075 15.367 34.6798 15.367C32.0111 15.367 30.2072 13.3824 30.2072 10.4243C30.2072 6.58309 31.7218 4.59852 34.626 4.59852C37.0075 4.59852 38.3597 5.66338 38.7738 7.88143H46.4056L46.4238 7.59212C46.4238 3.01087 41.7888 0 34.7357 0C27.1963 0 23.6251 2.9398 23.011 9.68531C21.9299 8.51284 20.1615 7.59314 18.8266 7.48553L15.9762 7.23277L11.7735 7.16069C9.97068 7.12415 8.94134 6.49274 8.94134 5.42889C8.94134 4.22089 9.98794 3.55294 11.8994 3.55294C14.0992 3.55294 14.9834 4.36403 14.9834 6.36585H23.01V6.11309C23.01 2.19978 19.2225 0.0345185 12.3511 0.0345185C4.72147 0.0345185 0.987843 2.12669 0.987843 6.36484C0.987843 9.99087 3.72969 11.9379 8.97789 12.082L12.0984 12.1551C14.3895 12.2262 15.4178 12.7855 15.4178 13.9945C15.4178 15.0218 13.9743 15.9953 12.478 15.9953C9.86206 15.9953 8.49165 15.0929 8.49165 13.3976H0.176758V13.5783C0.176758 17.6906 4.32557 19.9442 11.8649 19.9442C19.1342 19.9442 22.7054 18.3585 23.8596 14.5894C26.1863 18.5565 29.2164 20 35.1143 20C38.8662 20 40.8132 19.4762 43.2495 17.7078L42.4719 19.6386H49.5616L50.8599 16.6805H60.1666L61.4122 19.6031H73.5683V8.36565L82.209 19.6386H90.8122V0.686227H83.7601V10.8771H83.7581ZM108.325 11.9957L110.831 5.7182L113.681 11.9602L108.325 11.9957ZM52.8069 11.9957L55.3326 5.52025L58.2175 11.9957H52.8069Z" fill="#424F4F"/>
</svg>
