<svg width="121" height="16" viewBox="0 0 121 16" fill="none" xmlns="http://www.w3.org/2000/svg">
<path d="M51.8313 13.3002V15.6625H73.5087V8.53598H71.0471C70.928 10.7792 69.6973 13.1017 66.5211 13.3002H62.6898V2.48139H66.3821V0.0992556H51.8908V2.48139H55.464V13.3002H51.8313ZM39.8412 16C33.9057 16 28.9032 12.9628 28.9032 8.09925C28.9032 2.6799 33.8859 0 39.8412 0C46.4913 0 50.7395 3.03722 50.7395 8.09925C50.7395 12.9231 45.9553 16 39.8412 16ZM39.8412 13.3598C41.9057 13.3598 43.4342 10.9578 43.4342 8.0794C43.4342 4.88337 42.0447 2.50124 39.8412 2.50124C37.6377 2.50124 36.2878 4.88337 36.2878 8.0794C36.2878 11.3151 37.6377 13.3598 39.8412 13.3598ZM0 0.119108V2.50124H3.63275L10.799 15.6427H19.3548L26.6799 2.50124H30.2928V0.119108H19.335V2.50124H22.4715L17.1911 12.0298L11.9702 2.50124H15.8015V0.119108H0ZM69.9156 0.119108H85.737V2.50124H81.8859L87.1067 12.0298L92.4268 2.50124H89.2506V0.119108H100.189V2.50124H96.5955L89.2506 15.6427H80.6948L73.5285 2.50124H69.9156V0.119108ZM109.697 16C115.811 16 120.596 12.9231 120.596 8.09925C120.596 3.03722 116.328 0 109.697 0C103.762 0 98.7593 2.6799 98.7593 8.09925C98.7593 12.9628 103.762 16 109.697 16ZM109.697 13.3598C107.494 13.3598 106.164 11.3151 106.164 8.0794C106.164 4.88337 107.514 2.50124 109.697 2.50124C111.881 2.50124 113.29 4.88337 113.29 8.0794C113.29 10.9578 111.782 13.3598 109.697 13.3598Z" fill="#424F4F"/>
</svg>
